<?xml version="1.0" encoding="UTF-8"?>
<svg width="37px" height="14px" viewBox="0 0 37 14" version="1.1" xmlns="http://www.w3.org/2000/svg" xmlns:xlink="http://www.w3.org/1999/xlink">
    <title>LINE icon</title>
    <g id="TORY-BURCH_1440px" stroke="none" stroke-width="1" fill="none" fill-rule="evenodd">
        <g id="TB_B06_name" transform="translate(-825.000000, -673.000000)" fill="#06C755">
            <g id="Group-3" transform="translate(760.000000, 635.000000)">
                <g id="Group-2" transform="translate(31.947368, 33.684211)">
                    <g id="LINE-icon" transform="translate(33.052632, 4.315789)">
                        <path d="M35.5918762,13.0535337 L28.147763,13.0535337 L28.1378157,13.0535337 C27.8580459,13.0535337 27.6312459,12.8269824 27.6312459,12.5469639 L27.6312459,12.5390061 L27.6312459,12.53826 L27.6312459,0.979666579 L27.6312459,0.978920526 L27.6312459,0.967978421 C27.6312459,0.688208684 27.8580459,0.461408684 28.1378157,0.461408684 L28.147763,0.461408684 L35.5918762,0.461408684 C35.8704025,0.461408684 36.0984459,0.689203421 36.0984459,0.967978421 L36.0984459,2.84952316 C36.0984459,3.12929289 35.8716459,3.35609289 35.5918762,3.35609289 L30.5261788,3.35609289 L30.5261788,5.31000474 L35.5918762,5.31000474 C35.8704025,5.31000474 36.0984459,5.53804816 36.0984459,5.81657447 L36.0984459,7.69836789 C36.0984459,7.97813763 35.8716459,8.20493763 35.5918762,8.20493763 L30.5261788,8.20493763 L30.5261788,10.1588495 L35.5918762,10.1588495 C35.8704025,10.1588495 36.0984459,10.3866442 36.0984459,10.6651705 L36.0984459,12.5469639 C36.0984459,12.8269824 35.8716459,13.0535337 35.5918762,13.0535337" id="Fill-6"></path>
                        <path d="M8.01926303,13.0535337 C8.29903276,13.0535337 8.52583276,12.8269824 8.52583276,12.5469639 L8.52583276,10.6651705 C8.52583276,10.3866442 8.29778934,10.1588495 8.01926303,10.1588495 L2.95331697,10.1588495 L2.95331697,0.967978421 C2.95331697,0.689203421 2.72552224,0.461408684 2.44699592,0.461408684 L0.5652025,0.461408684 C0.285432763,0.461408684 0.0586327632,0.688208684 0.0586327632,0.967978421 L0.0586327632,12.53826 L0.0586327632,12.5390061 L0.0586327632,12.5469639 C0.0586327632,12.8269824 0.285432763,13.0535337 0.5652025,13.0535337 L0.575149868,13.0535337 L8.01926303,13.0535337 Z" id="Fill-8"></path>
                        <path d="M12.5064961,0.461209737 L10.6252,0.461209737 C10.3454303,0.461209737 10.1183816,0.688258421 10.1183816,0.967779474 L10.1183816,12.5470137 C10.1183816,12.8267834 10.3454303,13.0535834 10.6252,13.0535834 L12.5064961,13.0535834 C12.7865145,13.0535834 13.0130658,12.8267834 13.0130658,12.5470137 L13.0130658,0.967779474 C13.0130658,0.688258421 12.7865145,0.461209737 12.5064961,0.461209737" id="Fill-10"></path>
                        <path d="M25.3159213,0.461209737 L23.4343766,0.461209737 C23.1546068,0.461209737 22.9278068,0.688258421 22.9278068,0.967779474 L22.9278068,7.84514132 L17.6300871,0.690745263 C17.6176529,0.672342632 17.6037266,0.654934737 17.5893029,0.638521579 C17.5883082,0.637278158 17.5873134,0.636034737 17.58607,0.634791316 C17.5763713,0.623849211 17.5661753,0.613155789 17.5554818,0.603208421 L17.5460318,0.594504474 C17.5370792,0.586546579 17.5281266,0.578837368 17.5186766,0.571128158 L17.5047503,0.560932105 C17.496295,0.554715 17.4873424,0.548746579 17.4778924,0.542529474 C17.4729187,0.539296579 17.4676963,0.536312368 17.4624739,0.533328158 C17.4532726,0.527857105 17.4440713,0.522634737 17.4346213,0.517909737 C17.4291503,0.515174211 17.4239279,0.512438684 17.4184568,0.509951842 C17.4087582,0.505475526 17.3988108,0.501247895 17.3888634,0.497268947 C17.3833924,0.495279474 17.3779213,0.49329 17.3724503,0.491300526 C17.3622542,0.487570263 17.3520582,0.484337368 17.3416134,0.481353158 C17.335645,0.479612368 17.3296766,0.478120263 17.3234595,0.476628158 C17.3135121,0.47439 17.3035647,0.472151842 17.2933687,0.470162368 C17.2864055,0.468918947 17.2791937,0.467924211 17.2719818,0.466680789 C17.2627805,0.465686053 17.2538279,0.464442632 17.2446266,0.463696579 C17.2356739,0.462701842 17.2267213,0.462453158 17.2177687,0.462204474 C17.2118003,0.461955789 17.2060805,0.461209737 17.2001121,0.461209737 L15.3290121,0.461209737 C15.0492424,0.461209737 14.8224424,0.688258421 14.8224424,0.967779474 L14.8224424,12.5470137 C14.8224424,12.8267834 15.0492424,13.0535834 15.3290121,13.0535834 L17.2105568,13.0535834 C17.4903266,13.0535834 17.7171266,12.8267834 17.7171266,12.5470137 L17.7171266,5.67189 L23.0215608,12.8352387 C23.0581174,12.886965 23.1028805,12.9292413 23.1523687,12.9628137 C23.1543582,12.9640571 23.1560989,12.9655492 23.1580884,12.9667926 C23.1682845,12.9737558 23.1792266,12.9802216 23.18992,12.98619 C23.1948937,12.9889255 23.1996187,12.9919097 23.2048411,12.9941479 C23.2127989,12.9986242 23.2207568,13.0026032 23.2292121,13.0060847 C23.2376674,13.0100637 23.2456253,13.0135453 23.2540805,13.0167782 C23.2593029,13.0190163 23.2647739,13.0210058 23.2699963,13.0227466 C23.2814358,13.0267255 23.2931239,13.0307045 23.3050608,13.0339374 C23.3075476,13.0346834 23.3100345,13.0354295 23.3122726,13.0356782 C23.3545489,13.0468689 23.3988147,13.0535834 23.4448213,13.0535834 L25.3159213,13.0535834 C25.5956911,13.0535834 25.8224911,12.8267834 25.8224911,12.5470137 L25.8224911,0.967779474 C25.8224911,0.688258421 25.5956911,0.461209737 25.3159213,0.461209737" id="Fill-12"></path>
                    </g>
                </g>
            </g>
        </g>
    </g>
</svg>