<?xml version="1.0" encoding="UTF-8"?>
<svg width="172px" height="28px" viewBox="0 0 172 28" version="1.1" xmlns="http://www.w3.org/2000/svg" xmlns:xlink="http://www.w3.org/1999/xlink">
    <title>LOGO</title>
    <g id="TORY-BURCH_1440px" stroke="none" stroke-width="1" fill="none" fill-rule="evenodd">
        <g id="TB_B05-1_ans" transform="translate(-634.000000, -30.000000)" fill="#1D1D1B">
            <g id="LOGO" transform="translate(634.000000, 30.000000)">
                <path d="M127.441816,8.06047742 L121.660353,8.06047742 L121.660353,2.40583226 L127.441816,2.40583226 C129.259132,2.40583226 130.184311,3.86454194 130.184311,5.27854194 C130.184311,6.70338065 129.246911,8.06047742 127.441816,8.06047742 M133.006468,5.25550968 C133.006468,2.8271871 131.155658,0.30763871 127.475763,0.30763871 L118.986205,0.30763871 L118.986205,15.5048645 L121.660353,15.5048645 L121.660353,10.1121548 L126.470468,10.1121548 L130.572668,15.5048645 L133.726605,15.5048645 L129.430226,9.83892903 C131.840942,9.15473548 133.006468,7.1708 133.006468,5.25550968" id="Fill-1"></path>
                <path d="M99.5841979,0.307864516 L99.5841979,10.0211548 C99.5841979,13.8404452 103.171756,15.8130903 106.942629,15.8130903 C110.701735,15.8130903 114.232714,13.8634774 114.232714,10.2948323 L114.232714,0.307864516 L111.547251,0.307864516 L111.547251,10.1354129 C111.547251,12.5407032 109.079503,13.7148968 106.839429,13.7148968 C104.634661,13.7148968 102.257893,12.5637355 102.257893,9.86173548 L102.257893,0.307864516 L99.5841979,0.307864516 Z" id="Fill-3"></path>
                <path d="M32.0311074,7.96898065 C32.0311074,10.9789806 30.0200653,13.7952387 26.0432442,13.7952387 C22.1012758,13.7952387 20.1359495,10.9564 20.1359495,7.95814194 C20.1359495,4.9364 22.12436,2.07452903 26.0210653,2.07452903 C29.9969811,2.07452903 32.0311074,4.9364 32.0311074,7.96898065 M17.3020232,7.92336774 C17.3020232,11.8451742 20.1359495,15.8351742 26.0780968,15.8351742 C32.0650547,15.8351742 34.9102968,11.8912387 34.9102968,8.00330323 C34.9102968,4.05846452 31.99716,0.0111096774 25.9979811,0.0111096774 C20.1359495,0.0111096774 17.3020232,4.00156129 17.3020232,7.92336774" id="Fill-5"></path>
                <path d="M47.4796042,8.06047742 L41.6981411,8.06047742 L41.6981411,2.40583226 L47.4796042,2.40583226 C49.29692,2.40583226 50.2220989,3.86454194 50.2220989,5.27854194 C50.2220989,6.70338065 49.2851516,8.06047742 47.4796042,8.06047742 M53.0442568,5.25550968 C53.0442568,2.8271871 51.1934463,0.30763871 47.5140042,0.30763871 L39.0239937,0.30763871 L39.0239937,15.5048645 L41.6981411,15.5048645 L41.6981411,10.1121548 L46.5082568,10.1121548 L50.6104568,15.5048645 L53.7639411,15.5048645 L49.4680147,9.83892903 C51.8787305,9.15473548 53.0442568,7.1708 53.0442568,5.25550968" id="Fill-7"></path>
                <path d="M92.8424316,11.0702516 C92.8424316,12.2900581 92.0539474,13.4642516 90.214,13.4642516 L83.4267895,13.4642516 L83.4267895,8.65321935 L90.214,8.65321935 C92.0539474,8.65321935 92.8424316,9.85044516 92.8424316,11.0702516 L92.8424316,11.0702516 Z M83.4267895,2.34870323 L89.9627895,2.34870323 C91.4483263,2.34870323 92.1562421,3.38605806 92.1562421,4.4234129 C92.1562421,5.50638065 91.4021579,6.61238065 89.9627895,6.61238065 L83.4267895,6.61238065 L83.4267895,2.34870323 Z M94.9906211,4.18405806 C94.9906211,2.26876774 93.3448526,0.307864516 90.0773053,0.307864516 L80.7530947,0.307864516 L80.7530947,15.5050903 L82.5699579,15.5050903 L83.9980105,15.5050903 L90.7051053,15.5050903 C93.9504737,15.5050903 95.6645895,13.3499935 95.6645895,11.229671 C95.6645895,9.62238065 94.6706105,8.04896129 92.6251684,7.51289677 L92.6134,7.47902581 C94.2134526,6.88605806 94.9906211,5.5294129 94.9906211,4.18405806 L94.9906211,4.18405806 Z" id="Fill-9"></path>
                <path d="M136.731355,7.94649032 C136.731355,13.0768129 140.959386,15.8582968 145.483892,15.8582968 C148.511997,15.8582968 151.517471,14.5928774 153.197186,12.0737806 L151.025913,10.8648129 C149.814671,12.8717806 147.700881,13.8066194 145.643671,13.8066194 C142.639102,13.8066194 139.553513,11.9364903 139.553513,8.01468387 C139.553513,4.00165161 142.662186,2.06378065 145.689386,2.06378065 C147.735281,2.06378065 149.826439,2.99816774 151.025913,4.99339355 L153.197186,3.78532903 C151.518376,1.26713548 148.527839,0.00171612903 145.501997,-9.03225806e-05 L145.491586,-9.03225806e-05 C140.967534,0.00171612903 136.731355,2.79494194 136.731355,7.94649032" id="Fill-11"></path>
                <polygon id="Fill-13" points="8.86958737 15.5050452 8.86958737 2.34865806 14.9375663 2.34865806 14.9375663 0.307819355 0.0713347368 0.307819355 0.0713347368 2.34865806 6.19589263 2.34865806 6.19589263 15.5050452"></polygon>
                <polygon id="Fill-15" points="64.90506 15.5050452 64.90506 11.2296258 71.6809547 0.307819355 68.6985653 0.307819355 63.6137021 8.71052903 58.5745547 0.307819355 55.6722811 0.307819355 62.2313653 11.2065935 62.2313653 15.5050452"></polygon>
                <polygon id="Fill-17" points="169.205453 6.15656774 159.709695 6.15656774 159.709695 0.307729032 157.036 0.307729032 157.036 15.5049548 159.709695 15.5049548 159.709695 8.19740645 169.205453 8.19740645 169.205453 15.5049548 171.879147 15.5049548 171.879147 0.307729032 169.205453 0.307729032"></polygon>
                <polygon id="Fill-19" points="46.655 25.8475677 45.1219368 25.8475677 45.1219368 26.8370516 47.8191684 26.8370516 47.8191684 27.6178903 44.2126 27.6178903 44.2126 23.4738903 47.6729684 23.4738903 47.6729684 24.2606 45.1219368 24.2606 45.1219368 25.066729 46.655 25.066729"></polygon>
                <path d="M52.2722484,24.5403742 C52.0242063,24.3561161 51.5027747,24.0959871 50.81568,24.0959871 C50.4024274,24.0959871 50.03308,24.2486323 50.03308,24.6031484 C50.03308,24.9716645 50.5803116,24.9974065 51.1212063,25.0412129 C51.8780063,25.0926968 53.0611853,25.1807613 53.0611853,26.3228903 C53.0611853,27.3453419 52.20888,27.7450194 51.1909116,27.7450194 C50.1159116,27.7450194 49.3907958,27.3196 48.9073853,26.9262452 L49.42248,26.3043742 C49.7723642,26.5830194 50.3639537,27.0021161 51.2035853,27.0021161 C51.7318063,27.0021161 52.1513958,26.7993419 52.1513958,26.4123097 C52.1513958,26.0126323 51.7254695,25.9236645 51.1021958,25.8730839 C50.1924063,25.815729 49.1237432,25.7145677 49.1237432,24.6605032 C49.1237432,23.657471 50.05888,23.3467613 50.8410274,23.3467613 C51.7064589,23.3467613 52.4379116,23.6646968 52.79368,23.9054065 L52.2722484,24.5403742 Z" id="Fill-21"></path>
                <path d="M57.5203758,24.5403742 C57.2723337,24.3561161 56.7509021,24.0959871 56.0638074,24.0959871 C55.6505547,24.0959871 55.2812074,24.2486323 55.2812074,24.6031484 C55.2812074,24.9716645 55.8284389,24.9974065 56.3693337,25.0412129 C57.1261337,25.0926968 58.3093126,25.1807613 58.3093126,26.3228903 C58.3093126,27.3453419 57.4570074,27.7450194 56.4390389,27.7450194 C55.3640389,27.7450194 54.6389232,27.3196 54.1555126,26.9262452 L54.6706074,26.3043742 C55.0204916,26.5830194 55.6120811,27.0021161 56.4517126,27.0021161 C56.9799337,27.0021161 57.3995232,26.7993419 57.3995232,26.4123097 C57.3995232,26.0126323 56.9735968,25.9236645 56.3503232,25.8730839 C55.4405337,25.815729 54.3718705,25.7145677 54.3718705,24.6605032 C54.3718705,23.657471 55.3070074,23.3467613 56.0891547,23.3467613 C56.9545863,23.3467613 57.6860389,23.6646968 58.0418074,23.9054065 L57.5203758,24.5403742 Z" id="Fill-23"></path>
                <polygon id="Fill-25" points="62.2659463 25.8475677 60.7328832 25.8475677 60.7328832 26.8370516 63.4301147 26.8370516 63.4301147 27.6178903 59.8235463 27.6178903 59.8235463 23.4738903 63.2839147 23.4738903 63.2839147 24.2606 60.7328832 24.2606 60.7328832 25.066729 62.2659463 25.066729"></polygon>
                <polygon id="Fill-27" points="68.7738379 23.4739806 68.7738379 27.6179806 67.9849011 27.6179806 65.8733747 25.0537226 65.8670379 25.0537226 65.8670379 27.6179806 64.9509116 27.6179806 64.9509116 23.4739806 65.7335116 23.4739806 67.8513747 26.0441097 67.8577116 26.0441097 67.8577116 23.4739806"></polygon>
                <path d="M74.7406989,26.8945871 C74.2636253,27.3389742 73.5385095,27.7449742 72.62872,27.7449742 C71.2486463,27.7449742 70.3388568,26.7613613 70.3388568,25.5424581 C70.3388568,24.3497484 71.2549832,23.3471677 72.5970358,23.3471677 C73.3606253,23.3471677 74.1110884,23.6452323 74.6071726,24.0702 L74.0345937,24.666329 C73.6530253,24.3366516 73.11892,24.1338774 72.6735305,24.1338774 C71.8338989,24.1338774 71.2930042,24.7751677 71.2930042,25.5492323 C71.2930042,26.330071 71.8465726,26.9641355 72.7052147,26.9641355 C73.2714568,26.9641355 73.7992253,26.666071 74.1617832,26.304329 L74.7406989,26.8945871 Z" id="Fill-29"></path>
                <polygon id="Fill-31" points="78.6084358 25.8475677 77.0753726 25.8475677 77.0753726 26.8370516 79.7726042 26.8370516 79.7726042 27.6178903 76.1660358 27.6178903 76.1660358 23.4738903 79.6264042 23.4738903 79.6264042 24.2606 77.0753726 24.2606 77.0753726 25.066729 78.6084358 25.066729"></polygon>
                <path d="M85.1863947,26.964271 C85.9816684,26.964271 86.6049421,26.3166581 86.6049421,25.536271 C86.6049421,24.7689806 85.9816684,24.1335613 85.1863947,24.1335613 C84.4037947,24.1335613 83.7931947,24.7689806 83.7931947,25.536271 C83.7931947,26.3166581 84.4037947,26.964271 85.1863947,26.964271 M85.1863947,23.3468516 C86.5031,23.3468516 87.5590895,24.3304645 87.5590895,25.536271 C87.5590895,26.7673677 86.5031,27.7451097 85.1863947,27.7451097 C83.8696895,27.7451097 82.8390474,26.7673677 82.8390474,25.536271 C82.8390474,24.3304645 83.8696895,23.3468516 85.1863947,23.3468516" id="Fill-33"></path>
                <polygon id="Fill-35" points="89.1117516 27.6178903 89.1117516 23.4738903 92.5399832 23.4738903 92.5399832 24.2606 90.0215411 24.2606 90.0215411 25.0987935 91.5541516 25.0987935 91.5541516 25.8791806 90.0215411 25.8791806 90.0215411 27.6178903"></polygon>
                <path d="M97.7564263,26.8372323 C98.2335,26.8372323 98.4308474,26.7297484 98.6472053,26.5391677 C98.8889105,26.2984581 99.0287737,25.9674258 99.0287737,25.5492323 C99.0287737,25.1549742 98.9079211,24.8252968 98.6788895,24.5904581 C98.4688684,24.3818129 98.2461737,24.2607806 97.7564263,24.2607806 L96.7452474,24.2607806 L96.7452474,26.8372323 L97.7564263,26.8372323 Z M95.8354579,27.618071 L95.8354579,23.474071 L97.7881105,23.474071 C98.5517,23.474071 99.0477842,23.6890387 99.4166789,24.0638774 C99.7792368,24.4382645 99.9765842,24.9585226 99.9765842,25.5424581 C99.9765842,26.1458129 99.7665632,26.6918129 99.3786579,27.072071 C99.0224368,27.4089742 98.5707105,27.618071 97.7881105,27.618071 L95.8354579,27.618071 Z" id="Fill-37"></path>
                <path d="M102.470584,24.2413613 L102.470584,25.3270387 L103.959289,25.3270387 C104.277037,25.3270387 104.537753,25.0985226 104.537753,24.7810387 C104.537753,24.6419419 104.487058,24.5145871 104.391553,24.4197484 C104.245353,24.2607806 104.061132,24.2413613 103.895468,24.2413613 L102.470584,24.2413613 Z M101.560795,27.618071 L101.560795,23.474071 L103.863784,23.474071 C104.455374,23.474071 104.843279,23.6452323 105.110332,23.9247806 C105.326689,24.1532968 105.453879,24.4513613 105.453879,24.7810387 C105.453879,25.3139419 105.123005,25.7267161 104.614247,25.9489097 L105.587858,27.618071 L104.544089,27.618071 L103.704911,26.0947806 L102.470584,26.0947806 L102.470584,27.618071 L101.560795,27.618071 Z" id="Fill-39"></path>
                <polygon id="Fill-41" points="109.569929 25.8475677 108.036866 25.8475677 108.036866 26.8370516 110.734098 26.8370516 110.734098 27.6178903 107.127529 27.6178903 107.127529 23.4738903 110.587898 23.4738903 110.587898 24.2606 108.036866 24.2606 108.036866 25.066729 109.569929 25.066729"></polygon>
                <path d="M113.323151,26.024871 L114.620845,26.024871 L113.991235,24.5589355 L113.953214,24.5589355 L113.323151,26.024871 Z M113.602877,23.4741613 L114.385477,23.4741613 L116.312329,27.6177097 L115.313824,27.6177097 L114.932708,26.7420323 L113.01174,26.7420323 L112.636056,27.6177097 L111.675572,27.6177097 L113.602877,23.4741613 Z" id="Fill-43"></path>
                <polygon id="Fill-45" points="121.179205 27.6178903 121.179205 25.2126 121.147521 25.2126 119.983353 27.1486645 119.728974 27.1486645 118.564805 25.2126 118.533121 25.2126 118.533121 27.6178903 117.648679 27.6178903 117.648679 23.4738903 118.520447 23.4738903 119.881511 25.7459548 119.894184 25.7459548 121.248911 23.4738903 122.094879 23.4738903 122.094879 27.6178903"></polygon>
                <path d="M126.949398,24.5403742 C126.700903,24.3561161 126.179472,24.0959871 125.492377,24.0959871 C125.079124,24.0959871 124.710229,24.2486323 124.710229,24.6031484 C124.710229,24.9716645 125.257461,24.9974065 125.797903,25.0412129 C126.554703,25.0926968 127.737882,25.1807613 127.737882,26.3228903 C127.737882,27.3453419 126.885577,27.7450194 125.867608,27.7450194 C124.792608,27.7450194 124.067945,27.3196 123.584082,26.9262452 L124.099629,26.3043742 C124.449514,26.5830194 125.041103,27.0021161 125.880735,27.0021161 C126.408956,27.0021161 126.828093,26.7993419 126.828093,26.4123097 C126.828093,26.0126323 126.402166,25.9236645 125.778893,25.8730839 C124.869103,25.815729 123.80044,25.7145677 123.80044,24.6605032 C123.80044,23.657471 124.735577,23.3467613 125.518177,23.3467613 C126.383156,23.3467613 127.114608,23.6646968 127.470829,23.9054065 L126.949398,24.5403742 Z" id="Fill-47"></path>
            </g>
        </g>
    </g>
</svg>