<?xml version="1.0" encoding="UTF-8"?>
<svg width="44px" height="26px" viewBox="0 0 44 26" version="1.1" xmlns="http://www.w3.org/2000/svg" xmlns:xlink="http://www.w3.org/1999/xlink">
    <title>page-01</title>
    <g id="TORY-BURCH_1440px" stroke="none" stroke-width="1" fill="none" fill-rule="evenodd">
        <g id="TB_B02_Q1" transform="translate(-698.000000, -630.000000)" fill="#000000" fill-rule="nonzero">
            <g id="page-01" transform="translate(698.294333, 630.144000)">
                <polygon id="1" points="1.008 6.846 7.10542736e-15 3.066 6.972 1.15463195e-13 11.634 1.15463195e-13 11.634 23.856 6.972 23.856 6.972 4.242"></polygon>
                <path d="M30.1896667,11.102 L24.0156667,24.998 L22.1796667,24.998 L28.3536667,11.102 L30.1896667,11.102 Z M37.2196667,18.284 L37.2196667,16.682 L38.8216667,16.682 C39.5956667,16.682 40.2616667,16.214 40.2616667,15.494 C40.2616667,14.432 39.0736667,14.054 38.1016667,14.054 C36.6976667,14.054 35.3836667,14.864 34.4836667,15.71 L33.2596667,14.486 C34.4296667,13.388 36.0856667,12.29 38.1376667,12.29 C39.8836667,12.29 42.2776667,13.046 42.2776667,15.152 C42.2776667,16.214 41.5756667,16.97 41.0716667,17.186 C41.8276667,17.366 43.0516667,18.014 43.0516667,19.634 C43.0516667,21.938 40.6936667,23.216 37.7596667,23.216 C35.5996667,23.216 33.8356667,22.55 32.3596667,21.056 L33.5836667,19.652 C34.5736667,20.678 35.8516667,21.434 37.7596667,21.434 C39.5776667,21.434 41.0536667,20.732 41.0536667,19.508 C41.0536667,18.482 39.8296667,18.284 39.0376667,18.284 L37.2196667,18.284 Z" id="/3"></path>
            </g>
        </g>
    </g>
</svg>