<?xml version="1.0" encoding="UTF-8"?>
<svg width="47px" height="27px" viewBox="0 0 47 27" version="1.1" xmlns="http://www.w3.org/2000/svg" xmlns:xlink="http://www.w3.org/1999/xlink">
    <title>page-02</title>
    <g id="TORY-BURCH_1440px" stroke="none" stroke-width="1" fill="none" fill-rule="evenodd">
        <g id="TB_B02_Q2" transform="translate(-695.000000, -629.000000)" fill="#000000" fill-rule="nonzero">
            <g id="page-02" transform="translate(695.648333, 629.346000)">
                <path d="M2.772,7.644 L0.042,4.368 C2.856,2.142 5.754,-2.29150032e-13 10.752,-2.29150032e-13 C15.582,-2.29150032e-13 20.454,2.016 20.454,6.762 C20.454,12.558 13.902,13.986 10.5,15.036 C7.308,16.044 4.662,17.388 4.662,20.706 L4.662,20.958 L19.908,20.958 L19.908,24.654 L-1.38555833e-13,24.654 L-1.38555833e-13,21.126 C-1.38555833e-13,15.162 5.082,12.348 10.374,10.92 C11.508,10.626 15.792,9.534 15.792,6.888 C15.792,4.872 13.272,4.116 10.878,4.116 C7.224,4.116 4.998,5.712 2.772,7.644 Z" id="2"></path>
                <path d="M32.8356667,11.9 L26.6616667,25.796 L24.8256667,25.796 L30.9996667,11.9 L32.8356667,11.9 Z M39.8656667,19.082 L39.8656667,17.48 L41.4676667,17.48 C42.2416667,17.48 42.9076667,17.012 42.9076667,16.292 C42.9076667,15.23 41.7196667,14.852 40.7476667,14.852 C39.3436667,14.852 38.0296667,15.662 37.1296667,16.508 L35.9056667,15.284 C37.0756667,14.186 38.7316667,13.088 40.7836667,13.088 C42.5296667,13.088 44.9236667,13.844 44.9236667,15.95 C44.9236667,17.012 44.2216667,17.768 43.7176667,17.984 C44.4736667,18.164 45.6976667,18.812 45.6976667,20.432 C45.6976667,22.736 43.3396667,24.014 40.4056667,24.014 C38.2456667,24.014 36.4816667,23.348 35.0056667,21.854 L36.2296667,20.45 C37.2196667,21.476 38.4976667,22.232 40.4056667,22.232 C42.2236667,22.232 43.6996667,21.53 43.6996667,20.306 C43.6996667,19.28 42.4756667,19.082 41.6836667,19.082 L39.8656667,19.082 Z" id="/3"></path>
            </g>
        </g>
    </g>
</svg>