<?xml version="1.0" encoding="UTF-8"?>
<svg width="50px" height="27px" viewBox="0 0 50 27" version="1.1" xmlns="http://www.w3.org/2000/svg" xmlns:xlink="http://www.w3.org/1999/xlink">
    <title>page-03</title>
    <g id="TORY-BURCH_1440px" stroke="none" stroke-width="1" fill="none" fill-rule="evenodd">
        <g id="TB_B02_Q3" transform="translate(-692.000000, -629.000000)" fill="#000000" fill-rule="nonzero">
            <g id="page-03" transform="translate(692.855333, 629.346000)">
                <path d="M11.34,13.986 L11.34,10.248 L15.078,10.248 C16.884,10.248 18.438,9.156 18.438,7.476 C18.438,4.998 15.666,4.116 13.398,4.116 C10.122,4.116 7.056,6.006 4.956,7.98 L2.1,5.124 C4.83,2.562 8.694,-1.56319402e-13 13.482,-1.56319402e-13 C17.556,-1.56319402e-13 23.142,1.764 23.142,6.678 C23.142,9.156 21.504,10.92 20.328,11.424 C22.092,11.844 24.948,13.356 24.948,17.136 C24.948,22.512 19.446,25.494 12.6,25.494 C7.56,25.494 3.444,23.94 -2.94875235e-13,20.454 L2.856,17.178 C5.166,19.572 8.148,21.336 12.6,21.336 C16.842,21.336 20.286,19.698 20.286,16.842 C20.286,14.448 17.43,13.986 15.582,13.986 L11.34,13.986 Z" id="3"></path>
                <path d="M35.6286667,11.9 L29.4546667,25.796 L27.6186667,25.796 L33.7926667,11.9 L35.6286667,11.9 Z M42.6586667,19.082 L42.6586667,17.48 L44.2606667,17.48 C45.0346667,17.48 45.7006667,17.012 45.7006667,16.292 C45.7006667,15.23 44.5126667,14.852 43.5406667,14.852 C42.1366667,14.852 40.8226667,15.662 39.9226667,16.508 L38.6986667,15.284 C39.8686667,14.186 41.5246667,13.088 43.5766667,13.088 C45.3226667,13.088 47.7166667,13.844 47.7166667,15.95 C47.7166667,17.012 47.0146667,17.768 46.5106667,17.984 C47.2666667,18.164 48.4906667,18.812 48.4906667,20.432 C48.4906667,22.736 46.1326667,24.014 43.1986667,24.014 C41.0386667,24.014 39.2746667,23.348 37.7986667,21.854 L39.0226667,20.45 C40.0126667,21.476 41.2906667,22.232 43.1986667,22.232 C45.0166667,22.232 46.4926667,21.53 46.4926667,20.306 C46.4926667,19.28 45.2686667,19.082 44.4766667,19.082 L42.6586667,19.082 Z" id="/3"></path>
            </g>
        </g>
    </g>
</svg>